PathFileType	4	(X/Y/Z)	PS_ngait_og_ss1.trc	
DataRate	CameraRate	NumFrames	NumMarkers	Units	OrigDataRate	OrigDataStartFrame	OrigNumFrames	
120.00	120.00	11	36	mm	120.00	618	132	
Frame#	Time	Sternum			Neck			RShoulder			LShoulder			Xiphoid			Thoracic			RAsis			LAsis			RPsis			LPsis			LThighSuperior			LThighInferior			LThighLateral			LShankSuperior			LShankInferior			LShankLateral			RThighSuperior			RThighInferior			RThighLateral			RShankSuperior			RShankInferior			RShankLateral			RHeel			RToe			RMidfootLateral			RHindfoot			LHeel			LToe			LMidfootMedial			LMidfootLateral			LHindfoot			LMidfootSuperior			LToeMedial			LToeLateral			Sacral			RMidfootSuperior			
		X1	Y1	Z1	X2	Y2	Z2	X3	Y3	Z3	X4	Y4	Z4	X5	Y5	Z5	X6	Y6	Z6	X7	Y7	Z7	X8	Y8	Z8	X9	Y9	Z9	X10	Y10	Z10	X11	Y11	Z11	X12	Y12	Z12	X13	Y13	Z13	X14	Y14	Z14	X15	Y15	Z15	X16	Y16	Z16	X17	Y17	Z17	X18	Y18	Z18	X19	Y19	Z19	X20	Y20	Z20	X21	Y21	Z21	X22	Y22	Z22	X23	Y23	Z23	X24	Y24	Z24	X25	Y25	Z25	X26	Y26	Z26	X27	Y27	Z27	X28	Y28	Z28	X29	Y29	Z29	X30	Y30	Z30	X31	Y31	Z31	X32	Y32	Z32	X33	Y33	Z33	X34	Y34	Z34	X35	Y35	Z35	X36	Y36	Z36	

1	0.000	127.91978	1414.53564	174.07082	-32.45687	1520.22131	178.24527	16.08463	1508.69092	337.24405	-1.23401	1504.08032	36.66860	154.28813	1254.79749	185.94351	-122.96989	1305.82739	187.15219	52.85390	999.96069	330.07123	74.37818	983.66064	55.11620	-130.44125	1022.07208	235.52371	-127.03193	1013.97424	131.09335	46.20559	819.70728	-3.77769	156.51535	617.49548	31.31886	185.31300	739.30292	78.76965	230.89198	395.49536	27.01130	263.22009	195.74855	61.49523	286.65820	301.44302	93.03286	-41.06695	808.52673	370.76102	-92.12244	574.00812	334.97031	34.10859	705.75592	301.49228	-158.42664	424.83051	337.49673	-244.59825	183.75447	296.65652	-152.55701	286.99350	257.70236	-365.94772	80.17381	240.92952	-50.49874	40.13396	256.08078	-155.60825	28.11600	323.60696	-208.59140	32.38615	312.04797	219.85274	49.55954	114.96421	517.54523	132.21938	64.95035	437.05939	78.85036	128.38222	423.20746	74.75307	14.71949	374.76794	58.73893	30.84425	392.96335	134.19852	83.56770	476.06638	92.72569	119.40820	463.23926	98.33139	16.33792	-128.73659	1018.02319	183.30853	-178.37584	94.30369	255.98026 
2	0.008	137.53313	1413.30359	172.69246	-23.04017	1518.98694	176.45088	25.20491	1507.94934	335.60724	8.28547	1502.40771	34.77490	163.92964	1253.68811	185.00960	-113.32024	1304.57190	185.70844	62.13359	998.44287	329.73624	85.36868	982.97583	54.33908	-120.56881	1020.86139	234.11252	-116.44899	1012.75800	129.44701	58.35515	819.35718	-3.50024	167.15625	616.29395	32.25453	197.47401	737.67566	78.09644	235.58688	391.51401	28.93227	267.79190	193.55099	62.77632	292.82974	298.57758	94.11738	-32.61023	807.81787	370.20743	-84.68661	573.43799	334.37881	42.48515	704.52460	301.29721	-152.54912	424.89423	336.95544	-242.21313	185.21919	296.19312	-149.21118	286.85440	257.38339	-364.65054	83.12811	241.14821	-50.31988	39.55025	256.00470	-155.61131	27.92037	324.09738	-208.07539	32.93684	311.87427	221.08549	50.94288	115.55354	521.66992	124.56577	67.91524	440.49377	73.53536	130.55106	426.57242	69.16663	16.94767	376.06812	56.82653	31.22680	397.10742	129.70889	85.56237	479.11139	86.09924	122.27515	466.86728	91.73413	19.13559	-118.50890	1016.80969	181.77975	-176.94136	94.73238	255.57516 
3	0.017	147.04353	1412.41443	171.40453	-13.67605	1517.96545	174.61987	34.25043	1507.24634	333.97366	17.86485	1500.84399	33.02154	173.70844	1252.87317	184.13814	-103.49976	1303.37012	184.39635	71.61085	997.02307	329.19983	96.57937	982.35687	53.64083	-110.46940	1019.96393	232.50932	-105.68872	1011.77417	127.68358	70.62140	818.62518	-2.49744	177.00374	614.96851	33.16037	209.30971	736.20538	77.64761	243.24252	389.39456	30.10536	273.14590	191.53957	63.49772	299.21414	295.98001	95.09012	-23.89438	807.09882	369.34470	-76.69806	572.98120	333.75177	51.22268	703.42920	301.06796	-146.29755	425.15439	336.58221	-239.63423	186.96303	295.83716	-144.58611	286.47968	256.97485	-363.52521	86.44202	240.76225	-49.61057	38.43265	256.28659	-155.60742	27.91394	324.14392	-207.57484	33.58852	311.79190	222.80586	52.58061	115.41734	525.86926	116.33318	71.46977	443.81049	67.98410	133.00371	430.11728	64.01771	19.13477	380.71057	50.59581	34.49512	401.81073	124.92849	87.69537	481.98099	78.99580	125.55898	470.42654	85.09753	22.36641	-108.07906	1015.86908	180.09645	-175.52966	95.17892	255.72372 
4	0.025	156.78926	1411.65979	170.26831	-4.33737	1517.11365	172.72043	43.08924	1506.92578	332.28052	27.47735	1499.49536	31.23464	183.72485	1252.53967	183.35402	-93.63313	1302.42676	182.77884	81.20969	995.73749	328.51791	107.91909	982.40216	52.94025	-100.22576	1019.34729	230.76695	-94.85402	1011.00043	125.93639	82.33324	818.05310	-1.96422	186.00291	613.46814	33.87575	220.60757	734.57684	77.21705	251.36815	387.99664	30.49081	278.76666	189.91478	63.50682	305.54745	293.44611	95.84040	-14.89770	806.67999	368.74881	-68.18126	572.70410	333.24100	60.38667	702.63745	300.55438	-139.37744	425.60095	336.16364	-236.73677	189.02533	295.57910	-139.66202	286.92325	256.91632	-362.00287	90.63876	240.64670	-49.19491	37.74598	256.15369	-156.00903	28.74764	323.48285	-206.87471	34.31257	311.63977	224.77757	54.18715	114.86584	530.23090	107.63908	75.44865	444.10336	61.52744	136.31580	433.94144	57.92326	21.46588	383.71341	46.69588	36.08991	406.59949	119.99387	89.59847	484.03229	71.99697	128.75185	474.93518	77.83863	25.29868	-97.53989	1015.17389	178.35167	-173.84055	95.96536	255.72513 
5	0.033	166.34738	1411.38306	168.93584	4.96795	1516.48096	170.71030	51.94206	1506.66357	330.56482	37.06873	1498.37500	29.45377	193.88432	1252.61597	182.65405	-83.62691	1301.58569	181.19293	91.12601	994.70746	327.66614	119.36063	982.78400	52.31870	-89.76536	1018.83807	229.02531	-83.95812	1010.35223	124.20512	93.58183	817.74365	-1.94459	194.66756	611.89276	34.42295	230.89641	732.58508	77.03635	259.62329	386.40726	30.64351	284.27118	188.31578	63.27422	311.82306	290.95901	96.57508	-5.53447	806.40436	367.91724	-58.85261	572.35510	332.77945	70.05125	702.41968	300.27188	-131.74574	426.06216	335.96838	-233.35791	191.37514	295.24832	-134.51663	287.67151	256.81903	-360.04935	95.33685	240.57198	-48.85917	37.15967	256.10312	-156.06438	28.83104	323.42099	-206.13428	35.44014	311.55322	227.17142	55.49654	114.02766	534.25293	98.67174	78.51575	445.55124	55.23883	138.52487	437.25055	51.82037	23.83786	386.29095	42.75200	37.02663	411.04626	115.11692	90.90974	486.24020	64.62109	131.25316	478.75961	70.45934	27.67036	-86.86174	1014.59515	176.61522	-171.80510	96.72419	255.60643 
6	0.042	176.13869	1411.28760	167.83180	14.33368	1516.11548	168.71838	60.73337	1506.69983	328.78812	46.81072	1497.59070	27.65178	204.09293	1252.84424	181.90308	-73.58111	1300.94775	179.38673	101.13206	994.03009	326.68784	130.68678	983.21790	51.60836	-79.27731	1018.54541	227.25638	-73.08403	1010.07861	122.48847	104.24693	817.55658	-2.61185	203.11438	610.57172	34.59346	240.26329	730.48041	76.76592	268.19693	385.25015	30.27591	290.70135	186.03659	63.51332	318.28046	289.35922	97.90532	3.96644	806.32782	367.13138	-48.96883	572.04059	332.68021	80.01291	701.92987	300.24243	-123.46785	426.61346	335.83099	-229.52907	194.16917	295.02762	-128.68732	288.73126	257.11386	-357.74857	100.92146	240.64128	-48.47185	36.46920	256.19690	-155.41209	28.27477	323.22693	-205.38606	36.97998	311.87869	229.15965	56.64462	113.13888	537.64252	90.07816	80.04724	447.08466	49.32975	139.34628	439.38989	46.09624	24.45353	388.38245	38.88354	37.55627	415.26416	110.41473	91.79521	488.17520	57.49715	132.36708	481.73325	63.59533	28.72947	-76.18066	1014.31201	174.87242	-169.80260	97.83348	255.97437 
7	0.050	185.88928	1411.62427	166.72493	23.68196	1515.97461	166.70686	69.46352	1506.99597	327.02979	56.54097	1497.11377	25.81015	214.33421	1253.45630	181.38487	-63.47669	1300.49109	177.50151	111.31618	993.63135	325.52570	141.95268	984.03125	51.15526	-68.69517	1018.49695	225.45650	-62.30192	1009.97180	120.99603	114.25839	817.22906	-3.56009	211.69121	609.72083	34.38489	249.29756	728.97339	76.90703	277.74850	384.85217	29.93360	296.16238	184.15179	63.18296	323.96817	287.27017	98.06935	13.79862	806.32300	366.14072	-38.25262	571.81934	332.47171	90.64899	701.92938	299.96054	-114.23510	427.34351	335.91174	-225.01805	197.27954	295.18396	-121.86023	289.72009	257.28265	-354.91928	107.02541	241.03110	-48.11028	35.74767	256.24188	-155.05867	28.22696	323.09567	-204.54066	38.35481	311.51932	230.44028	57.51165	112.50067	540.51587	81.99242	79.81690	448.59610	44.91416	139.46504	441.00546	40.70452	24.71574	389.84473	35.09248	37.60353	418.49744	106.29864	91.36594	489.95508	51.64761	132.43535	483.80499	56.80154	28.72878	-65.49854	1014.23438	173.22627	-167.00690	98.97151	256.14517 
8	0.058	195.83047	1412.20630	165.45671	33.07310	1516.10840	164.68593	78.22957	1507.59705	325.23996	66.36817	1496.95337	23.97075	224.81233	1254.35828	180.81773	-53.26696	1300.45776	175.69110	121.62411	993.59760	324.27423	152.75172	984.93463	50.69064	-58.19252	1018.64648	223.89937	-51.83949	1010.24030	119.78493	123.80236	817.06659	-4.51753	221.10178	609.21948	34.18501	258.38226	728.19629	77.29395	283.40021	383.07819	30.05355	300.57593	182.80536	62.50367	329.26886	285.53986	98.01180	24.28645	806.40753	365.02646	-26.52963	571.49744	332.48569	102.05307	702.21527	299.73996	-104.21593	428.17847	336.35590	-220.08125	200.93030	295.41525	-114.40656	290.79541	257.83038	-351.54553	114.22829	241.15453	-47.39156	34.83089	256.35486	-154.83519	28.55353	323.11313	-203.17155	40.24850	311.40604	231.22859	58.03637	112.16811	542.43500	75.64487	78.51560	449.79416	41.98577	138.71037	442.11627	36.39621	24.25434	390.14172	32.34007	36.75185	420.56836	103.07612	90.04749	491.15823	47.44364	131.63139	484.98474	51.25229	27.86810	-55.01600	1014.44342	171.84215	-164.00639	100.31365	256.70422 
9	0.067	205.58955	1413.07715	164.32347	42.57877	1516.54395	162.61908	87.14678	1508.35388	323.43375	76.38287	1497.17200	22.14994	235.18440	1255.52539	180.24303	-43.15110	1300.85278	173.64693	131.78223	993.71088	323.08365	163.35701	985.87225	50.41608	-47.79426	1019.31165	222.41898	-41.52829	1010.90125	118.73982	132.90967	817.47644	-5.49972	230.92516	609.49615	33.57766	267.76071	728.39703	77.73743	289.66608	382.21976	29.65847	304.26416	182.15285	62.10209	334.22116	284.65289	98.01111	34.97949	806.60895	364.01483	-13.68620	571.04834	332.70255	113.85898	702.68286	299.85602	-93.06569	429.02499	336.83347	-213.99300	204.96024	295.65659	-106.10468	292.58994	258.81091	-347.47244	122.31144	241.57417	-46.90649	33.84207	256.28595	-154.20470	29.11085	323.09586	-201.99806	42.55866	311.37766	231.53290	58.32866	112.14518	544.03101	71.84895	78.38731	450.69113	40.31086	138.44403	442.74789	34.72023	23.51873	390.15836	31.40010	36.54948	421.64008	101.41529	89.72179	492.08621	44.81927	131.46307	486.10992	48.70302	27.69100	-44.66127	1015.10645	170.57939	-160.64539	101.93999	257.43875 
10	0.075	215.64394	1414.21582	163.11398	52.18738	1517.43164	160.48030	96.32559	1509.43616	321.80267	86.49843	1497.73413	20.30463	245.62944	1256.84412	179.46320	-33.11710	1301.71301	171.78935	141.84676	993.74585	321.84903	173.58698	987.59174	50.03439	-37.53386	1020.44263	221.12085	-31.51820	1012.06287	117.89427	142.17738	818.84894	-6.46697	240.70116	611.19012	32.01132	277.11749	729.77295	78.08929	296.55551	382.74487	29.21916	306.98257	182.48235	61.77731	338.56827	284.19226	97.69072	46.12677	806.36230	362.66483	0.09414	570.66058	333.08734	126.19678	703.40479	299.78162	-80.75170	430.19818	337.51337	-207.28220	209.62425	296.20328	-96.91019	294.33380	259.40445	-342.42172	131.52925	242.05174	-46.54188	33.08832	256.44360	-153.44887	29.86462	323.10385	-200.22736	45.36111	311.39636	231.72163	58.41014	112.12394	544.58582	70.08295	79.16197	451.12341	39.47235	138.89537	443.06113	34.59556	24.05725	390.25464	31.40635	36.44205	422.09354	100.93103	90.12801	492.31198	43.41616	132.09807	486.37546	47.93889	28.34961	-34.52603	1016.25275	169.50755	-156.39761	103.64737	258.31970 
11	0.083	225.65425	1415.75073	162.02863	62.01729	1518.57629	158.40704	105.68858	1510.77454	320.20758	96.59361	1498.58618	18.51333	255.81523	1258.55640	178.73987	-23.12780	1302.93848	170.07310	151.97937	994.27051	320.55630	183.41232	989.37909	49.40011	-27.41337	1021.85187	220.09114	-21.74444	1013.67841	117.15469	151.91734	820.91486	-7.58519	250.62527	612.72839	31.04282	286.20551	731.78033	78.40006	303.16885	383.74774	28.92879	309.44772	182.93408	61.94130	342.73312	284.56802	97.86431	58.04529	806.81860	361.68005	15.06293	570.16742	333.49124	139.19345	704.11621	299.48367	-67.31953	431.61115	338.42358	-199.51961	214.63834	297.01419	-86.66744	296.72742	260.26895	-336.30783	141.64740	242.57150	-45.65470	32.53614	256.76675	-152.38695	30.84670	323.10019	-198.22115	48.68280	311.56958	231.82260	58.47324	112.00668	545.13837	68.70119	79.64372	451.41708	38.93036	139.27635	443.28781	34.51905	24.05472	390.35797	31.52207	36.71461	422.64236	100.48169	90.63972	492.59348	42.43174	132.51010	486.67484	47.35872	28.77904	-24.57891	1017.76514	168.62291	-151.33923	105.43556	259.13107 
